<svg width="201" height="158" viewBox="0 0 201 158" fill="none" xmlns="http://www.w3.org/2000/svg">
<path d="M197.082 85.4347C198.882 92.0603 157.491 109.033 104.649 123.386C51.8069 137.738 7.51668 144.036 5.71711 137.411C5.3422 136.03 6.88672 134.162 10.1125 131.935L10.1444 131.926C24.589 132.977 60.876 126.678 102.474 115.38C144.073 104.081 178.56 91.157 190.489 82.9436L190.521 82.935C194.429 83.2237 196.707 84.0543 197.082 85.4347Z" fill="#F0D848"/>
<path d="M194.908 77.4281L197.082 85.4341C196.707 84.0537 194.43 83.2231 190.521 82.9344L190.489 82.9431C189.753 82.8793 188.954 82.8329 188.1 82.8345C183.626 82.7321 177.656 83.1678 170.486 84.0941C152.301 86.3983 126.467 91.7682 98.1507 99.4591C69.8345 107.15 44.8334 115.587 27.9815 122.799C21.8846 125.41 16.832 127.837 13.1186 130.031C11.9999 130.697 11.0086 131.329 10.1447 131.926L10.1128 131.934C6.88703 134.161 5.3425 136.03 5.71741 137.41L3.54293 129.404C3.15969 127.993 4.71254 126.155 7.88297 123.976C8.88114 123.244 10.0552 122.53 11.4121 121.733C25.7051 113.536 57.8497 101.808 95.9762 91.4531C134.103 81.0977 169.43 74.6646 185.438 74.7962C186.532 74.7954 187.507 74.8599 188.418 74.9418C192.255 75.2171 194.525 76.017 194.908 77.4281Z" fill="#A69219"/>
<path d="M188.1 82.8344C183.626 82.7321 177.656 83.1677 170.486 84.0941C152.301 86.3982 126.467 91.7681 98.1507 99.459C69.8345 107.15 44.8334 115.587 27.9815 122.799C21.8846 125.41 16.832 127.837 13.1186 130.031C11.9999 130.697 11.0086 131.329 10.1447 131.926C24.5893 132.976 60.8763 126.677 102.475 115.379C144.073 104.081 178.56 91.1564 190.489 82.943C189.753 82.8793 188.954 82.8328 188.1 82.8344Z" fill="#5C500A"/>
<path d="M185.437 74.7968C169.429 74.6651 135.026 80.8473 95.976 91.4536C56.9258 102.06 25.7049 113.537 11.4119 121.734C10.9404 118.865 10.6282 115.952 10.5321 113.08C9.71472 96.4709 14.0613 80.238 22.4346 66.2381C33.7714 47.2832 52.4465 32.4286 75.8575 26.07L81.336 24.582C82.4189 24.2879 83.5421 24.0158 84.6417 23.783C124.362 14.5099 164.257 32.9552 181.842 66.8474C183.157 69.4217 184.352 72.0612 185.437 74.7968Z" fill="#F0D848"/>
<path d="M83.1587 18.3225L84.6417 23.7826C83.542 24.0154 82.4189 24.2875 81.3359 24.5816L76.9404 25.7755L75.4824 20.4075C76.7707 20.6175 78.1516 20.5389 79.5212 20.1669C80.8909 19.7949 82.1218 19.1641 83.1587 18.3225Z" fill="#927F12"/>
<path d="M86.421 8.67472C87.4041 12.2943 86.0243 16.0287 83.1587 18.3221C82.1218 19.1636 80.8908 19.7944 79.5212 20.1664C78.1516 20.5384 76.7707 20.617 75.4824 20.407C71.8503 19.8784 68.7709 17.3552 67.7878 13.7356C66.4381 8.76639 69.5192 3.61475 74.6474 2.22192C79.7755 0.829088 85.0713 3.70548 86.421 8.67472Z" fill="#F0D848"/>
<path d="M182.428 142.61C182.428 142.979 181.92 143.33 180.939 143.664C179.886 144.033 178.325 144.402 176.291 144.735C166.578 142.346 134.114 140.589 95.5684 140.589C60.545 140.589 30.5327 142.047 18.0593 144.103C17.4783 143.962 16.9518 143.804 16.5342 143.664C15.5538 143.33 15.0454 142.979 15.0454 142.61C15.0454 139.5 52.5381 136.97 98.7458 136.97C144.953 136.97 182.428 139.5 182.428 142.61Z" fill="#F4F5F8"/>
<path d="M176.388 144.624C170.104 145.675 159.338 146.584 145.694 147.207C132.269 147.83 116.056 148.186 98.5868 148.186C77.6199 148.186 58.4564 147.67 43.7377 146.797C31.3506 146.067 22.115 145.105 17.6338 143.983C30.1483 141.899 60.2598 140.421 95.3989 140.421C134.072 140.421 166.624 142.202 176.388 144.624Z" fill="#D1D4E0"/>
<path d="M182.428 142.147V144.509C182.428 145.095 181.321 145.681 179.233 146.227C173.387 147.769 159.88 149.077 141.98 149.877C129.363 150.444 114.567 151.772 98.7367 151.772C78.9667 151.772 60.8124 150.268 46.4886 149.409C27.3177 148.257 15.0454 146.481 15.0454 144.509V142.147C15.0454 142.557 15.5537 142.948 16.5341 143.319C16.9516 143.475 17.4781 143.651 18.059 143.807C22.525 145.036 31.711 146.091 44.0741 146.891C58.7428 147.847 77.8411 148.413 98.7367 148.413C116.147 148.413 132.304 148.023 145.684 147.34C159.281 146.657 169.992 145.661 176.274 144.509C178.307 144.139 179.886 143.729 180.921 143.319C181.901 142.948 182.41 142.557 182.41 142.147H182.428Z" fill="#E5E7EF"/>
</svg>
